<?xml version="1.0" standalone="no"?>
<!DOCTYPE svg PUBLIC "-//W3C//DTD SVG 20010904//EN"
 "http://www.w3.org/TR/2001/REC-SVG-20010904/DTD/svg10.dtd">
<svg version="1.0" xmlns="http://www.w3.org/2000/svg"
 width="200.000000pt" height="200.000000pt" viewBox="0 0 200.000000 200.000000"
 preserveAspectRatio="xMidYMid meet">

<g transform="translate(0.000000,200.000000) scale(0.100000,-0.100000)"
fill="#000000" stroke="none">
<path d="M1223 1459 c-335 -25 -617 -198 -783 -480 -32 -54 -90 -188 -90 -208
0 -6 12 -13 28 -17 110 -23 208 -74 281 -144 25 -25 43 -36 45 -28 2 7 9 33
16 58 51 189 207 337 403 384 42 10 32 -10 -19 -35 -52 -27 -123 -99 -152
-155 -93 -184 -10 -420 181 -514 231 -113 535 35 602 295 21 81 22 648 1 698
-33 79 -138 132 -295 147 -53 5 -100 9 -106 8 -5 0 -56 -4 -112 -9z"/>
<path d="M303 730 c-43 -17 -56 -63 -51 -176 4 -90 9 -111 37 -168 37 -76 94
-126 166 -146 104 -29 212 46 251 176 11 36 12 56 3 87 -22 81 -163 188 -294
223 -57 16 -81 16 -112 4z"/>
</g>
</svg>
