<?xml version="1.0" standalone="no"?>
<!DOCTYPE svg PUBLIC "-//W3C//DTD SVG 20010904//EN"
 "http://www.w3.org/TR/2001/REC-SVG-20010904/DTD/svg10.dtd">
<svg version="1.0" xmlns="http://www.w3.org/2000/svg"
 width="1047.000000pt" height="705.000000pt" viewBox="0 0 1047.000000 705.000000"
 preserveAspectRatio="xMidYMid meet">

<g transform="translate(0.000000,705.000000) scale(0.100000,-0.100000)"
fill="#000000" stroke="none">
<path d="M4591 6973 c1 -72 2 -75 11 -38 17 74 18 115 2 115 -11 0 -14 -16
-13 -77z"/>
<path d="M7650 7027 c0 -12 5 -60 10 -106 6 -46 8 -86 4 -90 -4 -3 -9 -1 -11
6 -3 8 -13 7 -33 -5 -24 -14 -33 -15 -49 -5 -21 13 -166 37 -295 49 -51 5 -85
13 -95 23 -21 21 -47 20 -64 -3 -12 -16 -28 -18 -168 -17 -85 1 -182 7 -216
13 -53 10 -79 8 -162 -7 -81 -15 -110 -16 -153 -7 -45 9 -67 7 -138 -10 -47
-11 -116 -21 -155 -23 -38 -2 -90 -9 -115 -15 -52 -13 -121 -26 -200 -36 -30
-4 -62 -13 -70 -20 -47 -40 -155 -59 -167 -28 -4 11 -14 13 -37 9 -52 -10
-180 -68 -202 -91 -23 -24 -97 -49 -120 -40 -38 15 -217 -72 -322 -157 -42
-34 -84 -67 -92 -74 -8 -6 -42 -34 -76 -61 -33 -27 -76 -57 -95 -67 -18 -10
-63 -45 -99 -79 -36 -33 -121 -108 -190 -166 -68 -58 -133 -114 -145 -126 -85
-86 -211 -240 -284 -348 -57 -84 -49 -80 -196 -96 -254 -28 -384 -66 -489
-141 -31 -22 -56 -44 -56 -48 0 -4 -8 -16 -18 -27 -23 -24 -77 -137 -90 -189
-30 -110 -51 -244 -72 -450 -16 -164 -36 -301 -65 -460 -9 -49 -21 -119 -27
-155 -5 -36 -13 -87 -17 -115 -5 -27 -16 -99 -25 -160 -9 -60 -20 -135 -26
-165 -5 -30 -12 -72 -15 -92 -6 -41 -20 -50 -28 -18 -5 19 -14 20 -235 20
-137 0 -242 -4 -258 -10 -15 -6 -62 -13 -103 -16 -96 -6 -110 -10 -142 -45
-17 -19 -33 -27 -43 -23 -11 4 -16 0 -16 -15 0 -30 -39 -61 -76 -61 l-32 0 -7
71 c-7 70 -8 71 -44 86 -20 9 -52 18 -73 20 -42 6 -52 28 -36 73 6 19 6 35 0
46 -6 12 -7 27 -1 43 7 18 6 28 -5 40 -14 13 -16 13 -21 -2 -9 -21 -32 -12
-78 33 -47 46 -54 76 -23 101 20 16 24 31 31 110 6 86 5 92 -16 115 -28 30
-59 32 -59 3 0 -11 -4 -18 -8 -15 -16 10 -29 -52 -30 -140 0 -89 0 -89 -27
-92 -17 -2 -35 4 -49 17 -18 17 -33 20 -85 18 -46 -2 -65 -7 -72 -19 -11 -19
-156 -78 -193 -78 -14 0 -28 -5 -32 -11 -3 -6 -24 -9 -48 -7 -31 3 -50 -1 -77
-19 -48 -31 -100 -24 -130 18 -24 34 -101 89 -123 89 -9 0 -16 5 -16 10 0 6
-6 10 -12 10 -17 0 -53 40 -62 67 -4 12 -20 32 -37 43 -16 12 -29 28 -29 35 0
8 -10 17 -22 20 -27 9 -68 44 -68 59 0 13 -86 88 -133 116 -40 24 -97 92 -97
116 0 9 -16 41 -35 70 -19 29 -35 56 -35 60 0 3 -11 17 -25 30 -27 25 -32 50
-12 57 9 3 9 9 1 24 -6 10 -15 33 -19 51 -7 32 -18 41 -30 22 -10 -17 -25 -11
-35 13 -5 13 -9 -886 -9 -2280 l-1 -2303 572 0 c518 0 573 2 590 17 17 15 18
15 18 0 0 -16 344 -17 4645 -17 l4645 0 0 1877 c0 1181 -4 1872 -10 1863 -5
-8 -7 -24 -5 -35 3 -12 -6 -33 -25 -55 -28 -32 -30 -33 -30 -11 0 12 4 31 10
41 8 14 4 21 -16 35 -18 12 -24 23 -22 43 3 25 7 27 51 30 l47 3 0 1630 0
1629 -360 0 c-325 0 -394 -5 -345 -24 8 -3 15 -11 15 -18 0 -7 7 -26 16 -43 9
-16 16 -45 15 -62 -1 -18 3 -33 9 -33 7 0 9 -8 5 -20 -5 -14 -2 -20 10 -20 23
0 32 -31 12 -42 -19 -10 -23 -53 -7 -63 6 -3 8 -16 5 -28 -7 -29 4 -44 35 -48
28 -4 26 -17 30 159 2 106 25 161 68 162 13 0 21 -4 18 -8 -3 -5 -1 -37 5 -73
9 -62 11 -418 4 -584 -11 -244 -29 -784 -29 -835 1 -19 5 -72 9 -117 7 -69 5
-86 -9 -108 -14 -21 -15 -31 -5 -64 10 -33 9 -42 -7 -67 -11 -15 -18 -31 -16
-34 2 -3 1 -52 -3 -110 -6 -100 -11 -139 -35 -263 -8 -38 -7 -75 0 -124 8 -50
8 -88 0 -139 -6 -38 -14 -133 -16 -212 -5 -154 -14 -195 -41 -190 -32 6 -63
109 -73 246 -6 70 -14 143 -20 162 -5 19 -10 52 -10 74 0 21 -11 62 -24 90
-13 28 -27 71 -31 96 -4 25 -16 60 -26 79 -11 19 -18 40 -15 47 5 14 -40 107
-96 199 -43 71 -52 104 -31 127 9 10 22 18 29 18 17 0 54 48 54 71 0 10 -13
41 -30 67 -16 27 -30 54 -30 60 0 6 -8 16 -17 21 -10 6 -12 11 -5 11 6 0 -6
18 -27 39 -42 42 -43 48 -55 189 -6 62 7 795 20 1210 l6 202 -24 0 -25 0 -7
-287 c-3 -159 -9 -432 -11 -608 -7 -396 -12 -485 -30 -485 -7 0 -38 42 -68 93
-79 131 -350 424 -482 522 -22 16 -59 46 -83 66 -23 21 -62 46 -85 58 -68 33
-172 92 -177 101 -13 19 -363 174 -478 210 -31 10 -47 22 -53 39 -9 21 -6 123
6 254 l3 37 -154 0 c-154 0 -154 0 -154 -23z m2352 -39 c-9 -9 -12 -7 -12 12
0 19 3 21 12 12 9 -9 9 -15 0 -24z m-532 -2243 c0 -14 -4 -25 -10 -25 -11 0
-14 33 -3 43 11 11 13 8 13 -18z m30 -113 c0 -26 -11 -34 -27 -21 -20 17 -16
39 7 39 13 0 20 -7 20 -18z m-5784 -34 c37 -13 52 -36 29 -44 -8 -4 -38 -1
-67 6 -29 6 -63 13 -75 16 -13 2 -23 11 -23 19 0 19 88 21 136 3z m5817 -246
c23 -25 34 -127 16 -134 -23 -9 -110 8 -120 23 -9 13 -4 83 7 101 3 4 14 8 25
8 10 0 19 5 19 10 0 17 36 11 53 -8z m317 -392 c0 -5 -4 -10 -9 -10 -6 0 -13
5 -16 10 -3 6 1 10 9 10 9 0 16 -4 16 -10z m340 -302 c0 -16 -3 -19 -11 -11
-6 6 -8 16 -5 22 11 17 16 13 16 -11z m-6224 -172 c17 -13 17 -16 4 -30 -20
-19 -106 -23 -153 -7 -34 11 -45 11 -84 -4 -30 -12 -48 -14 -55 -7 -38 38 238
84 288 48z m-1308 -119 c8 -6 12 -6 12 2 0 6 7 11 16 11 14 0 14 -3 4 -15 -7
-9 -20 -13 -27 -11 -9 4 -38 -18 -73 -52 -57 -56 -60 -57 -102 -51 -24 4 -58
5 -75 3 -29 -4 -33 -1 -33 19 0 27 19 46 70 73 52 27 183 41 208 21z m952 -38
c0 -5 -4 -9 -10 -9 -5 0 -10 7 -10 16 0 8 5 12 10 9 6 -3 10 -10 10 -16z m236
-716 c28 -31 74 -115 74 -135 0 -7 7 -26 15 -41 13 -25 21 -57 42 -159 7 -35
-4 -81 -17 -73 -6 4 -17 22 -25 41 -8 20 -21 34 -32 35 -39 2 -98 44 -122 88
-24 43 -24 46 -12 135 11 80 30 136 47 136 3 0 16 -12 30 -27z m214 -118 c6
-38 16 -72 21 -76 6 -3 9 -24 7 -45 -2 -31 -7 -39 -23 -39 -15 0 -23 11 -33
45 -8 25 -20 65 -28 90 -17 55 -18 84 -2 110 12 19 14 19 30 2 10 -10 22 -47
28 -87z m-3138 -622 c32 -31 34 -38 12 -47 -18 -7 -53 30 -54 57 0 24 9 21 42
-10z m-145 -29 c-3 -3 -12 -4 -19 -1 -8 3 -5 6 6 6 11 1 17 -2 13 -5z m233
-129 c7 -8 8 -15 2 -15 -5 0 -15 7 -22 15 -7 8 -8 15 -2 15 5 0 15 -7 22 -15z
m490 -1435 c0 -5 -4 -10 -10 -10 -5 0 -10 5 -10 10 0 6 5 10 10 10 6 0 10 -4
10 -10z m-77 -40 c6 -16 15 -30 20 -30 4 0 5 -4 2 -10 -3 -5 -14 -10 -23 -10
-14 0 -14 2 -3 9 11 7 9 12 -10 21 -28 15 -40 31 -33 42 11 18 36 6 47 -22z
m147 0 c25 -13 59 -20 93 -20 56 0 66 -9 67 -57 0 -13 -61 -8 -95 8 -11 5 -40
13 -65 17 -42 7 -45 10 -48 40 -4 38 -3 38 48 12z m450 -10 c0 -12 -40 -33
-48 -25 -4 4 2 13 12 21 23 16 36 18 36 4z m-1950 -40 c0 -5 -9 -10 -20 -10
-11 0 -20 5 -20 10 0 6 9 10 20 10 11 0 20 -4 20 -10z m-30 -37 c1 -17 1 -17
11 0 16 28 29 20 29 -18 0 -19 -4 -35 -10 -35 -5 0 -10 8 -10 18 -1 16 -1 16
-11 0 -16 -29 -29 -21 -29 17 0 19 5 35 10 35 6 0 10 -8 10 -17z m1685 -47
l30 -13 -33 -5 c-18 -2 -35 -1 -38 4 -3 5 -10 6 -15 2 -14 -8 -41 4 -34 16 8
14 54 12 90 -4z m-177 -29 c136 5 64 -28 -103 -46 -44 -5 -82 -8 -86 -5 -12 7
3 53 20 58 9 2 34 1 56 -2 22 -4 73 -6 113 -5z"/>
<path d="M9885 6600 c-3 -5 -1 -10 4 -10 6 0 11 5 11 10 0 6 -2 10 -4 10 -3 0
-8 -4 -11 -10z"/>
<path d="M9870 6500 c0 -32 14 -40 24 -14 10 27 7 44 -9 44 -10 0 -15 -10 -15
-30z"/>
<path d="M9853 6404 c-8 -21 13 -42 28 -27 13 13 5 43 -11 43 -6 0 -13 -7 -17
-16z"/>
</g>
</svg>
